<?xml version="1.0" encoding="utf-8"?>
<svg version="1.1" id="Layer_1" xmlns="http://www.w3.org/2000/svg" xmlns:xlink="http://www.w3.org/1999/xlink" x="0px" y="0px"
	 width="512px" height="512px" viewBox="0 0 512 512" enable-background="new 0 0 512 512" xml:space="preserve">
<path fill="#00a1b2" d="M256,104.0001c40.60107,0,78.77197,15.81104,107.48096,44.52026
	C392.18945,177.22946,408,215.39975,408,256.00009c0,40.6012-15.81055,78.77185-44.51904,107.48059
	S296.60156,408.00009,256,408.00009c-40.6001,0-78.77002-15.81067-107.47949-44.51965
	C119.81104,334.77109,104,296.60056,104,256.00009c0-40.59961,15.81104-78.7699,44.52051-107.47937
	C177.23047,119.81114,215.40039,104.0001,256,104.0001 M256,64.0001c-106.03613,0-192,85.96337-192,192
	c0,106.03918,85.96387,192,192,192c106.04102,0,192-85.96082,192-192C448,149.96347,362.04102,64.0001,256,64.0001L256,64.0001z"/>
<path fill="#00a1b2" d="M332,244.00009h-60v-100c0-11.04565-8.9541-19.99999-20-19.99999s-20,8.95434-20,19.99999v120
	c0,11.04565,8.9541,20,20,20h80c11.0459,0,20-8.95435,20-20S343.0459,244.00009,332,244.00009z"/>
</svg>
