<?xml version="1.0" encoding="utf-8"?>
<!-- Generator: Adobe Illustrator 21.0.0, SVG Export Plug-In . SVG Version: 6.00 Build 0)  -->
<!DOCTYPE svg PUBLIC "-//W3C//DTD SVG 1.1//EN" "http://www.w3.org/Graphics/SVG/1.1/DTD/svg11.dtd">
<svg version="1.1" id="Layer_1" xmlns="http://www.w3.org/2000/svg" xmlns:xlink="http://www.w3.org/1999/xlink" x="0px" y="0px"
	 width="512px" height="512px" viewBox="0 0 512 512" enable-background="new 0 0 512 512" xml:space="preserve">
<path fill="#FFFFFF" d="M375,137v187.9H137.1V137H375 M391,112H121.1c-5,0-9,4-9,9v219.9c0,5,4,9,9,9H391c5,0,9-4,9-9V121
	C400,116,396,112,391,112L391,112z"/>
<path fill="#FFFFFF" d="M391,374.9H121.1c-5,0-9,4-9,9v7c0,5,4,9,9,9H391c5,0,9-4,9-9v-7C400,378.9,396,374.9,391,374.9L391,374.9z"
	/>
<polygon fill="#FFFFFF" points="274.7,196.7 236.2,263.6 217.5,231.2 177.4,300.6 334.7,300.6 "/>
<circle fill="#FFFFFF" cx="221.8" cy="180.1" r="18.9"/>
</svg>
