<svg id="Layer_1" data-name="Layer 1" xmlns="http://www.w3.org/2000/svg" width="512" height="512" viewBox="0 0 512 512">
  <title>infochip</title>
  <path d="M87,229.5a3.76,3.76,0,0,0,3.7,3.7h76.4a3.76,3.76,0,0,0,3.7-3.7V153.1a3.76,3.76,0,0,0-3.7-3.7H90.7a3.76,3.76,0,0,0-3.7,3.7Zm130.1,0a3.76,3.76,0,0,0,3.7,3.7l211.14-.05a3.76,3.76,0,0,0,3.7-3.7V153a3.76,3.76,0,0,0-3.7-3.7l-211.14.05a3.76,3.76,0,0,0-3.7,3.7Zm0,101.63a3.76,3.76,0,0,0,3.7,3.7l211.14-.05a3.76,3.76,0,0,0,3.7-3.7V282.66a3.76,3.76,0,0,0-3.7-3.7L220.8,279a3.76,3.76,0,0,0-3.7,3.7Z" fill="#fff"/>
</svg>
