<svg id="Layer_1" data-name="Layer 1" xmlns="http://www.w3.org/2000/svg" width="512" height="512" viewBox="0 0 512 512">
  <title>list</title>
  <g>
    <rect x="153.957" y="44" width="312.057" height="64" fill="#fff"/>
    <rect x="153.957" y="164" width="312.057" height="64" fill="#fff"/>
    <rect x="153.957" y="284" width="312.057" height="64" fill="#fff"/>
    <rect x="153.957" y="404" width="312.057" height="64" fill="#fff"/>
    <path d="M80.009,120V50.419L62.1,56.3h-.9V40.314L87.172,32h13.942v88Z" fill="#fff"/>
    <path d="M110.157,240H52.165V225.819c21.526-21.652,34.948-33.807,34.948-46.469,0-7.344-4.559-11.776-14.435-11.776-8.231,0-18.487,3.166-18.487,3.166H53.3V154.786A96.017,96.017,0,0,1,75.843,152c23.425,0,33.554,10.256,33.554,24.691,0,19.246-17.727,31.908-33.681,46.849h34.441Z" fill="#fff"/>
    <path d="M60.227,306.974h9.9c4.388,0,8.147,0,11.783-2.131a8.687,8.687,0,0,0,4.513-8.023c0-5.892-3.886-9.4-13.288-9.4-8.775,0-18.929,3.134-18.929,3.134h-1v-15.67A87.425,87.425,0,0,1,75.521,272c21.06,0,32.592,8.148,32.592,22.063,0,10.906-7.145,17.424-16.922,19.681,10.906,1.755,18.8,8.9,18.8,20.809,0,15.92-14.165,25.447-36.855,25.447-12.535,0-20.809-2.883-20.809-2.883v-15.67h.878s10.029,3.134,19.3,3.134c10.405,0,15.8-4.011,15.8-10.781a9.937,9.937,0,0,0-5.014-9.026c-3.761-2.131-8.9-2.131-13.288-2.131H60.227Z" fill="#fff"/>
    <path d="M104.057,462.86V480H84.87V462.86H45.987V447.767L80.266,392h23.791v54.744h12.279V462.86ZM84.87,446.744V413.233L64.4,446.744Z" fill="#fff"/>
  </g>
</svg>
