<?xml version="1.0" encoding="utf-8"?>
<!-- Generator: Adobe Illustrator 21.0.0, SVG Export Plug-In . SVG Version: 6.00 Build 0)  -->
<svg version="1.1" id="Layer_1" xmlns="http://www.w3.org/2000/svg" xmlns:xlink="http://www.w3.org/1999/xlink" x="0px" y="0px"
	 width="512px" height="512px" viewBox="0 0 512 512" style="enable-background:new 0 0 512 512;" xml:space="preserve">
<style type="text/css">
	.st0{fill:#FFFFFF;}
</style>
<path class="st0" d="M64.4,312.7v-97.3l-25,8.2h-1.3v-22.3l36.3-11.6h19.5v123H64.4z"/>
<path class="st0" d="M294.8,312.6h-81.9v-20c30.4-30.6,49.3-47.7,49.3-65.6c0-10.4-6.4-16.6-20.4-16.6c-11.6,0-26.1,4.5-26.1,4.5
	h-1.3v-22.5c0,0,14.5-3.9,31.8-3.9c33.1,0,47.4,14.5,47.4,34.9c0,27.2-25,45.1-47.6,66.2h48.6V312.6z"/>
<path class="st0" d="M407.6,238.3h14.1c6.3,0,11.6,0,16.8-3c3.9-2.3,6.4-5.9,6.4-11.4c0-8.4-5.5-13.4-19-13.4c-12.5,0-27,4.5-27,4.5
	h-1.4v-22.3c0,0,13.9-4.1,31.8-4.1c30,0,46.5,11.6,46.5,31.5c0,15.6-10.2,24.9-24.1,28.1c15.6,2.5,26.8,12.7,26.8,29.7
	c0,22.7-20.2,36.3-52.6,36.3c-17.9,0-29.7-4.1-29.7-4.1v-22.3h1.3c0,0,14.3,4.5,27.5,4.5c14.8,0,22.5-5.7,22.5-15.4
	c0-6.1-2.9-10.4-7.2-12.9c-5.4-3-12.7-3-19-3h-13.9V238.3z"/>
</svg>
